<?xml version="1.0" encoding="UTF-8" standalone="no"?>
<svg xmlns="http://www.w3.org/2000/svg" width="207" height="36" viewBox="0 0 207 36">
  <g id="Group_807" data-name="Group 807" transform="translate(-135 -36)">
    <g id="Group_1" data-name="Group 1" transform="translate(894 -934.5)">
      <path id="Path_184" data-name="Path 184" d="M37.972,115.7v-8.19a.6.6,0,0,1,.663-.667h2.084a.6.6,0,0,1,.663.667v12.857a.6.6,0,0,1-.663.667H39.393a.543.543,0,0,1-.521-.286c-.142-.238-.332-.381-.568-.238a5.833,5.833,0,0,1-2.889.762,5.718,5.718,0,0,1-6.015-5.619v-8.19a.6.6,0,0,1,.663-.667h2.131a.6.6,0,0,1,.663.667v8.19a2.481,2.481,0,0,0,2.558,2.524,2.446,2.446,0,0,0,2.558-2.476" transform="translate(-707.476 877.033)" fill="#000"/>
      <path id="Path_185" data-name="Path 185" d="M67.778,101a.372.372,0,0,0,.142-.333v-4.1a.6.6,0,0,1,.663-.667h2.037a.6.6,0,0,1,.663.667V114.71a.6.6,0,0,1-.663.667H69.293a.543.543,0,0,1-.521-.286c-.142-.238-.332-.381-.568-.238a5.833,5.833,0,0,1-2.889.762A5.718,5.718,0,0,1,59.3,110v-3.667a5.69,5.69,0,0,1,6.015-5.619,7.944,7.944,0,0,1,2.131.286.228.228,0,0,0,.332,0m-5.115,5.333V110a2.558,2.558,0,0,0,5.115,0v-3.667a2.558,2.558,0,0,0-5.115,0Z" transform="translate(-723.215 882.743)" fill="#000"/>
      <path id="Path_186" data-name="Path 186" d="M89.6,97.757a1.847,1.847,0,1,1,1.847,1.857A1.825,1.825,0,0,1,89.6,97.757" transform="translate(-739.164 882.743)" fill="000"/>
      <path id="Path_187" data-name="Path 187" d="M89.8,119.876V107.5c0-.9.663-1.1,1.279-1.1h.995c.663,0,1.184.286,1.184,1.048v12.429a.993.993,0,0,1-1.137,1.1H91.031c-.663,0-1.231-.19-1.231-1.1" transform="translate(-739.27 877.243)" fill="000"/>
      <path id="Path_188" data-name="Path 188" d="M102.6,115.338v-3.619a6.029,6.029,0,0,1,12.03,0v3.619a6.029,6.029,0,0,1-12.03,0m3.457-3.619v3.619a2.558,2.558,0,0,0,5.115,0v-3.619a2.558,2.558,0,0,0-5.115,0Z" transform="translate(-746.007 877.4)" fill="000"/>
      <path id="Path_189" data-name="Path 189" d="M139.353,117.238a1.346,1.346,0,0,0,.332-1c-.095-1.19-2.415-1.333-2.51-1.333-3.5-.286-5.541-1.9-5.589-4.429a4.291,4.291,0,0,1,1.184-2.9,6.6,6.6,0,0,1,9.235.667.684.684,0,0,1,.189.476.659.659,0,0,1-.237.429l-1.373,1c-.284.19-.568.143-.9-.143a3.623,3.623,0,0,0-2.51-1.048,2.531,2.531,0,0,0-1.894.619,1.517,1.517,0,0,0-.379.952c.047,1.19,1.326,1.381,2.273,1.476h.095c3.836.524,5.541,1.81,5.636,4.286a3.986,3.986,0,0,1-1.042,3.1c-.947,1-2.558,1.524-4.689,1.524a7.014,7.014,0,0,1-5.92-3.429.654.654,0,0,1,.189-.952l1.373-.9a.571.571,0,0,1,.853.19,4.877,4.877,0,0,0,3.552,2.048,2.787,2.787,0,0,0,2.131-.619" transform="translate(-761.021 877.452)" fill="000"/>
      <path id="Path_190" data-name="Path 190" d="M158.8,115.233v-3.714a6.029,6.029,0,0,1,12.03,0v3.714a6.029,6.029,0,0,1-12.03,0m3.457-3.714v3.714a2.558,2.558,0,0,0,5.115,0v-3.714A2.481,2.481,0,0,0,164.815,109,2.453,2.453,0,0,0,162.257,111.519Z" transform="translate(-775.59 877.505)" fill="000"/>
      <path id="Path_191" data-name="Path 191" d="M187.6,115.338v-3.619a5.718,5.718,0,0,1,6.015-5.619,5.59,5.59,0,0,1,5.447,3.333.726.726,0,0,1-.189.9l-1.61,1.048a.581.581,0,0,1-.9-.143c-.616-1.048-1.231-2.1-2.794-2.1a2.481,2.481,0,0,0-2.557,2.524v3.619a2.481,2.481,0,0,0,2.557,2.524c1.563,0,2.179-1.1,2.794-2.1a.737.737,0,0,1,.379-.286.562.562,0,0,1,.521.143l1.61,1.048c.426.286.189.857.189.9a6.069,6.069,0,0,1-11.461-2.19" transform="translate(-790.75 877.4)" fill="000"/>
      <path id="Path_192" data-name="Path 192" d="M216,114.562v-18.1a.6.6,0,0,1,.663-.667h2.131a.6.6,0,0,1,.663.667v9.571c0,.476.284.571.521.571a1.119,1.119,0,0,0,.995-.667l2.936-4.381a1.105,1.105,0,0,1,1.042-.667h2.179a.61.61,0,0,1,.521.238.531.531,0,0,1-.047.524l-2.984,4.714a.643.643,0,0,0-.095.381.909.909,0,0,0,.426.429,5.755,5.755,0,0,1,3.078,5.1v2.238a.6.6,0,0,1-.663.667h-2.131a.6.6,0,0,1-.663-.667v-2.238a2.558,2.558,0,0,0-5.115,0v2.238a.6.6,0,0,1-.663.667h-2.131a.549.549,0,0,1-.663-.619" transform="translate(-805.7 882.795)" fill="000"/>
      <path id="Path_193" data-name="Path 193" d="M270.7,102.029v-1.571a.6.6,0,0,1,.663-.667h.9a.449.449,0,0,0,.474-.476V96.267a.6.6,0,0,1,.663-.667h2.131a.6.6,0,0,1,.663.667v3.1a.449.449,0,0,0,.474.476h2.273a.6.6,0,0,1,.663.667v1.571a.6.6,0,0,1-.663.667h-2.273a.449.449,0,0,0-.474.476v6.714a2.522,2.522,0,0,0,2.368,2.524h.332c.474-.048.663.048.805.429l.616,1.619a.52.52,0,0,1,.047.238c0,.381-.379.571-.568.667a6.01,6.01,0,0,1-.663.19h-.379a5.718,5.718,0,0,1-6.015-5.619v-6.714a.449.449,0,0,0-.474-.476h-.9a.73.73,0,0,1-.663-.762" transform="translate(-834.493 882.9)" fill="000"/>
      <path id="Path_194" data-name="Path 194" d="M12.03,112.1v-.476A5.718,5.718,0,0,0,6.015,106,5.689,5.689,0,0,0,0,111.619v3.571a5.5,5.5,0,0,0,4.5,5.429h0a7.283,7.283,0,0,0,1.468.19h.379a6.153,6.153,0,0,0,.616-.143A.749.749,0,0,0,7.436,120c0-.1-.047-.286-.047-.381L7.009,118.1c-.189-.381-.332-.476-.805-.429H5.873a2.192,2.192,0,0,1-.995-.238c-.047-.048-.095-.048-.142-.1l-.047-.048a2.53,2.53,0,0,1-1.137-2.143v-3.571a2.481,2.481,0,0,1,2.558-2.524,2.481,2.481,0,0,1,2.558,2.524v6.286a5.008,5.008,0,0,0,.237,1.714,3.178,3.178,0,0,0,.284.571,2.194,2.194,0,0,0,.332.333,1.18,1.18,0,0,0,.616.143h1.231a.6.6,0,0,0,.663-.667V112.1h0" transform="translate(-692 877.452)" fill="000"/>
      <path id="Path_195" data-name="Path 195" d="M247.857,114.229v-3.19a2.655,2.655,0,0,1,5.21,0v.048a.4.4,0,0,1-.426.429h-2.6a.665.665,0,0,0-.663.571l-.237,1.571c-.047.381.095.619.521.619h5.21a1.3,1.3,0,0,0,1.421-1.429v-1.429a5.623,5.623,0,0,0-5.873-5.619,5.718,5.718,0,0,0-6.015,5.619v3.714a5.718,5.718,0,0,0,6.015,5.619,5.59,5.59,0,0,0,5.447-3.333.726.726,0,0,0-.189-.9l-1.563-1.048a1.23,1.23,0,0,0-.521-.143.737.737,0,0,0-.379.286c-.616,1.048-1.231,2.1-2.794,2.1a2.519,2.519,0,0,1-2.557-2.571v-.9" transform="translate(-820.649 877.557)" fill="#000"/>
      <path id="Path_197" data-name="Path 197" d="M290.1,95.7h1.137v.19h-.474v1.19h-.189V95.89H290.1V95.7" transform="translate(-844.705 882.848)" fill="#000"/>
      <path id="Path_198" data-name="Path 198" d="M293.937,97.081V95.938h0l-.379,1.143h-.189l-.379-1.143h0v1.143H292.8V95.7h.284l.379,1.19h0l.379-1.19h.284v1.381h-.189" transform="translate(-846.126 882.848)" fill="#000"/>
    </g>
    <path id="Path_199" data-name="Path 199" d="M100.361,7.373a3.641,3.641,0,0,0-1.258.219,3.925,3.925,0,0,0-2.293,1.974A4.073,4.073,0,0,0,96.4,11.32a3.673,3.673,0,0,0,.222,1.243,3.906,3.906,0,0,0,2,2.266A10.974,10.974,0,0,1,102.1,17.5s.185.256.222.292a.268.268,0,0,0,.222.146c.111,0,.185-.11.148-.292a3.936,3.936,0,0,1,.037-.439,11.142,11.142,0,0,1,1.147-4.167,3.7,3.7,0,0,0,.407-1.754A3.965,3.965,0,0,0,102.1,7.775a4.168,4.168,0,0,0-1.739-.4m13.723,6.761a3.8,3.8,0,0,0-1.258.219,3.925,3.925,0,0,0-2.293,1.974,4.038,4.038,0,0,0-.407,1.718,3.673,3.673,0,0,0,.222,1.243,3.906,3.906,0,0,0,2,2.266,3.674,3.674,0,0,0,1.739.4,4.024,4.024,0,0,0,3.551-2.156,3.871,3.871,0,0,0-1.776-5.226,3.978,3.978,0,0,0-1.776-.439m-34.29.073a4.024,4.024,0,0,0-3.551,2.156,3.85,3.85,0,0,0-.222,3,3.906,3.906,0,0,0,2,2.266,4.063,4.063,0,0,0,3.736-.11,4.026,4.026,0,0,0,1.591-1.645h0a4.038,4.038,0,0,0,.407-1.718,3.673,3.673,0,0,0-.222-1.243,3.906,3.906,0,0,0-2-2.266,3.328,3.328,0,0,0-1.739-.439m11.541,4.02c-.111,0-.185.11-.148.292a3.4,3.4,0,0,1-.037.439A11.88,11.88,0,0,1,90,23.125,3.7,3.7,0,0,0,89.6,24.88a3.965,3.965,0,0,0,2.182,3.509,4.168,4.168,0,0,0,1.739.4,3.8,3.8,0,0,0,1.258-.219A3.925,3.925,0,0,0,97.068,26.6a4.038,4.038,0,0,0,.407-1.718,3.521,3.521,0,0,0-.222-1.243,3.906,3.906,0,0,0-2-2.266,11.073,11.073,0,0,1-3.477-2.7s-.185-.256-.222-.292a.268.268,0,0,0-.222-.146M79.794,12.015a6.635,6.635,0,0,1,2.737.621,6.078,6.078,0,0,1,3.107,3.509,5.967,5.967,0,0,1-.333,4.642,9.042,9.042,0,0,0,4.106,12.171,9.351,9.351,0,0,0,4.069.95,9.031,9.031,0,0,0,4.106-17.141,6.2,6.2,0,0,1-3.107-3.509,5.967,5.967,0,0,1,.333-4.642,6.105,6.105,0,0,1,3.551-3.07,5.965,5.965,0,0,1,1.96-.329,6.036,6.036,0,0,1,2.737.658,6.2,6.2,0,0,1,3.107,3.509,5.967,5.967,0,0,1-.333,4.642,9.011,9.011,0,0,0,4.106,12.134,9.351,9.351,0,0,0,4.069.95,9.242,9.242,0,0,0,8.212-5.007,8.8,8.8,0,0,0,.481-6.908,8.943,8.943,0,0,0-4.587-5.226,9.232,9.232,0,0,0-4.069-.95,7.824,7.824,0,0,0-.925.037,11.288,11.288,0,0,0-1.369.219c-.185.037-.259.146-.222.365,0,0,.074.365.111.694a8.482,8.482,0,0,1,.037.95v.146a5.577,5.577,0,0,1-.037.621c-.037.183.037.292.185.292a.282.282,0,0,0,.148-.037,6.332,6.332,0,0,1,.777-.219,7.381,7.381,0,0,1,1.295-.146,6.506,6.506,0,0,1,2.737.621,6.056,6.056,0,0,1,2.774,8.15,6.181,6.181,0,0,1-5.512,3.362,6.635,6.635,0,0,1-2.737-.621,6.2,6.2,0,0,1-3.107-3.509,5.967,5.967,0,0,1,.333-4.642A9.08,9.08,0,0,0,100.361,2.22a9.155,9.155,0,0,0-8.212,5.007,9.011,9.011,0,0,0,4.106,12.134,6.2,6.2,0,0,1,3.107,3.509,5.967,5.967,0,0,1-.333,4.642,6.106,6.106,0,0,1-3.551,3.07,5.965,5.965,0,0,1-1.96.329A6.147,6.147,0,0,1,88.006,22.1a8.8,8.8,0,0,0,.481-6.908,9.137,9.137,0,0,0-8.656-6.177,9.155,9.155,0,0,0-8.212,5.007,8.8,8.8,0,0,0-.481,6.908,8.943,8.943,0,0,0,4.587,5.226,9.51,9.51,0,0,0,4.106.95,8.143,8.143,0,0,0,.925-.037,11.288,11.288,0,0,0,1.369-.219c.185-.037.259-.146.222-.365,0,0-.074-.365-.111-.694a8.483,8.483,0,0,1-.037-.95V24.7a5.578,5.578,0,0,1,.037-.621c.037-.183-.037-.292-.185-.292a.282.282,0,0,0-.148.037,6.331,6.331,0,0,1-.777.219,7.8,7.8,0,0,1-1.295.146,6.635,6.635,0,0,1-2.737-.621,6.2,6.2,0,0,1-3.107-3.509,5.955,5.955,0,0,1,.333-4.642,6.054,6.054,0,0,1,5.475-3.4M93.48,36.1a11.811,11.811,0,0,1-5.068-1.17A11.137,11.137,0,0,1,83.234,29.7l-.222-.512a.293.293,0,0,0-.3-.183h-.074s-.629.146-1.073.219a10.106,10.106,0,0,1-1.813.146,11.569,11.569,0,0,1-5.068-1.17,11.238,11.238,0,0,1-5.1-15.094A11.513,11.513,0,0,1,84.862,8.068a11.126,11.126,0,0,1,2.922,2.083c.444.439.74.8.74.8a.378.378,0,0,0,.3.183c.111,0,.185-.11.185-.365a6.507,6.507,0,0,1,.074-.841,12.016,12.016,0,0,1,1.11-3.618A11.513,11.513,0,0,1,105.465,1.27a11.152,11.152,0,0,1,5.142,5.19,5.444,5.444,0,0,1,.259.621.278.278,0,0,0,.259.183h.074s.333-.073.592-.146a11.9,11.9,0,0,1,2.293-.219,11.411,11.411,0,0,1,5.031,1.17,11.246,11.246,0,0,1-5.068,21.308,11.811,11.811,0,0,1-5.068-1.17,10.326,10.326,0,0,1-3.44-2.668,2.245,2.245,0,0,0-.185-.219.378.378,0,0,0-.3-.183c-.111,0-.185.11-.185.365v.256A10.884,10.884,0,0,1,103.69,30a11.385,11.385,0,0,1-6.547,5.628,15.479,15.479,0,0,1-3.662.475" transform="translate(66.598 35.9)" fill="#C1D72E"/>
  </g>
</svg>
